<?xml version="1.0" encoding="UTF-8"?>
<svg xmlns="http://www.w3.org/2000/svg" xmlns:xlink="http://www.w3.org/1999/xlink" width="32px" height="32px" viewBox="0 0 32 32" version="1.1">
<g id="surface1">
<path style=" stroke:none;fill-rule:nonzero;fill:rgb(0%,47.843137%,80%);fill-opacity:1;" d="M 0 16 L 0 0 L 32 0 L 32 32 L 0 32 "/>
<path style=" stroke:none;fill-rule:nonzero;fill:rgb(100%,100%,100%);fill-opacity:1;" d="M 7.015625 16.054688 L 7.015625 17.359375 L 11.175781 17.359375 L 11.175781 29.199219 L 14.128906 29.199219 L 14.128906 17.359375 L 18.289062 17.359375 L 18.289062 16.078125 C 18.289062 15.359375 18.289062 14.777344 18.257812 14.761719 C 18.257812 14.734375 15.71875 14.726562 12.640625 14.726562 L 7.039062 14.753906 L 7.039062 16.0625 Z M 25.710938 14.71875 C 26.527344 14.910156 27.152344 15.28125 27.710938 15.863281 C 28.007812 16.183594 28.449219 16.742188 28.480469 16.886719 C 28.480469 16.9375 27.097656 17.871094 26.257812 18.390625 C 26.222656 18.414062 26.097656 18.28125 25.96875 18.070312 C 25.550781 17.480469 25.128906 17.222656 24.464844 17.175781 C 23.503906 17.113281 22.863281 17.617188 22.863281 18.457031 C 22.863281 18.710938 22.910156 18.855469 23.007812 19.0625 C 23.222656 19.503906 23.625 19.769531 24.863281 20.3125 C 27.152344 21.296875 28.144531 21.945312 28.742188 22.871094 C 29.425781 23.910156 29.574219 25.542969 29.121094 26.769531 C 28.609375 28.105469 27.359375 29.007812 25.574219 29.304688 C 25.015625 29.398438 23.734375 29.382812 23.136719 29.28125 C 21.855469 29.039062 20.632812 28.398438 19.878906 27.574219 C 19.585938 27.257812 19.015625 26.398438 19.046875 26.34375 L 19.351562 26.152344 L 20.550781 25.457031 L 21.457031 24.929688 L 21.664062 25.207031 C 21.929688 25.625 22.519531 26.183594 22.863281 26.375 C 23.902344 26.910156 25.296875 26.839844 25.984375 26.214844 C 26.28125 25.945312 26.40625 25.65625 26.40625 25.257812 C 26.40625 24.886719 26.351562 24.71875 26.167969 24.441406 C 25.910156 24.089844 25.398438 23.800781 23.960938 23.160156 C 22.304688 22.457031 21.601562 22.007812 20.945312 21.320312 C 20.566406 20.902344 20.222656 20.257812 20.0625 19.71875 C 19.945312 19.257812 19.902344 18.121094 20.015625 17.664062 C 20.359375 16.0625 21.566406 14.945312 23.296875 14.625 C 23.855469 14.511719 25.175781 14.558594 25.726562 14.703125 Z M 25.710938 14.71875 "/>
</g>
</svg>
